<?xml version="1.0" encoding="UTF-8"?>
<svg id="Layer_1" data-name="Layer 1" xmlns="http://www.w3.org/2000/svg" viewBox="0 0 1080 1080">
  <g>
    <path fill="#f47524" d="M510.74,683.08l-.04-17.52-8.69,14.5h-2.19l-8.69-14.28v17.3h-4.68v-26.44h4.04l10.5,17.52,10.31-17.52h4.04l.04,26.44h-4.65Z"/>
    <path fill="#f47524" d="M549.03,676.97h-13.22l-2.61,6.12h-5.06l11.9-26.44h4.83l11.93,26.44h-5.14l-2.64-6.12ZM547.41,673.11l-4.99-11.56-4.95,11.56h9.93Z"/>
    <path fill="#f47524" d="M586.84,683.08l-5.4-7.74c-.23.02-.57.04-1.02.04h-5.97v7.7h-4.91v-26.44h10.88c2.29,0,4.29.38,5.99,1.13,1.7.76,3,1.84,3.91,3.25.91,1.41,1.36,3.08,1.36,5.02s-.49,3.7-1.45,5.14c-.97,1.43-2.36,2.51-4.17,3.21l6.08,8.69h-5.29ZM585.06,662.16c-1.11-.91-2.73-1.36-4.87-1.36h-5.74v10.54h5.74c2.14,0,3.76-.46,4.87-1.38,1.11-.92,1.66-2.22,1.66-3.91s-.56-2.98-1.66-3.89Z"/>
    <path fill="#f47524" d="M615.61,672.02l-4.19,4.3v6.76h-4.91v-26.44h4.91v13.56l13.07-13.56h5.51l-11.1,11.82,11.78,14.62h-5.74l-9.33-11.07Z"/>
    <path fill="#f47524" d="M663.23,678.97v4.12h-19.83v-26.44h19.3v4.12h-14.39v6.87h12.76v4.04h-12.76v7.29h14.92Z"/>
    <path fill="#f47524" d="M683.44,660.8h-8.76v-4.15h22.43v4.15h-8.76v22.28h-4.91v-22.28Z"/>
    <path fill="#f47524" d="M727.04,657.78c1.7.76,3,1.84,3.91,3.25.91,1.41,1.36,3.08,1.36,5.02s-.45,3.58-1.36,5c-.91,1.42-2.21,2.51-3.91,3.27-1.7.76-3.69,1.13-5.99,1.13h-5.97v7.63h-4.91v-26.44h10.88c2.29,0,4.29.38,5.99,1.13ZM725.7,669.94c1.11-.91,1.66-2.2,1.66-3.89s-.56-2.98-1.66-3.89c-1.11-.91-2.73-1.36-4.87-1.36h-5.74v10.5h5.74c2.14,0,3.76-.45,4.87-1.36Z"/>
    <path fill="#f47524" d="M746.58,656.65h4.91v22.28h13.82v4.15h-18.73v-26.44Z"/>
    <path fill="#f47524" d="M795.9,676.97h-13.22l-2.61,6.12h-5.06l11.9-26.44h4.83l11.93,26.44h-5.14l-2.64-6.12ZM794.28,673.11l-4.99-11.56-4.95,11.56h9.93Z"/>
    <path fill="#f47524" d="M821.03,681.71c-2.15-1.17-3.84-2.79-5.06-4.85-1.22-2.06-1.83-4.39-1.83-6.99s.62-4.92,1.85-6.99c1.23-2.06,2.93-3.68,5.08-4.85,2.15-1.17,4.56-1.76,7.23-1.76,2.16,0,4.14.38,5.93,1.13,1.79.76,3.3,1.85,4.53,3.29l-3.17,2.98c-1.91-2.06-4.27-3.1-7.06-3.1-1.81,0-3.44.4-4.87,1.19-1.43.79-2.56,1.9-3.36,3.31-.81,1.41-1.21,3.01-1.21,4.8s.4,3.39,1.21,4.8c.81,1.41,1.93,2.51,3.36,3.31,1.44.79,3.06,1.19,4.87,1.19,2.79,0,5.15-1.04,7.06-3.13l3.17,3.02c-1.23,1.43-2.75,2.53-4.55,3.29-1.8.76-3.78,1.13-5.95,1.13-2.67,0-5.08-.59-7.23-1.76Z"/>
    <path fill="#f47524" d="M872.68,678.97v4.12h-19.83v-26.44h19.3v4.12h-14.39v6.87h12.76v4.04h-12.76v7.29h14.92Z"/>
  </g>
  <path fill="#f47524" d="M273.26,506.23c7.97,9.48,22.12,10.7,31.6,2.73h0c9.48-7.97,10.7-22.12,2.73-31.6l-60.85-72.35c-7.97-9.48-22.12-10.7-31.6-2.73h0c-9.48,7.97-10.7,22.12-2.73,31.6l60.85,72.35Z"/>
  <path fill="#434951" d="M341.64,534.28c-3.95-4.7-9.74-7.39-15.88-7.39-4.87,0-9.61,1.73-13.34,4.86-.51.43-1.01.89-1.5,1.39,6.4,8.92,6.87,21.07,1.16,30.44l58.67,69.75c3.94,4.69,9.73,7.38,15.88,7.38,4.87,0,9.6-1.73,13.33-4.87,4.24-3.56,6.84-8.56,7.32-14.08.48-5.52-1.22-10.89-4.79-15.13l-60.84-72.36Z"/>
  <path fill="#434951" d="M412.15,400.86c-3.66-2.83-8.04-4.32-12.66-4.32-6.48,0-12.47,2.94-16.43,8.07l-57.77,74.83c-3.38,4.38-4.86,9.82-4.15,15.32.71,5.49,3.51,10.38,7.89,13.77,3.66,2.83,8.04,4.32,12.66,4.32,6.48,0,12.47-2.94,16.43-8.07l57.78-74.83c6.99-9.05,5.31-22.1-3.74-29.09Z"/>
  <path fill="#f47524" d="M301.25,532.82c-3.66-2.83-8.04-4.32-12.65-4.32-6.48,0-12.47,2.94-16.43,8.07l-57.78,74.83c-2.83,3.68-4.33,8.05-4.33,12.65,0,6.48,2.94,12.46,8.07,16.43,3.66,2.83,8.04,4.32,12.65,4.32,6.48,0,12.47-2.94,16.43-8.07l57.78-74.81c.46-.6.89-1.23,1.28-1.86,4.37-7.12,3.96-16.42-1.02-23.15-1.13-1.54-2.48-2.92-4.01-4.1Z"/>
  <path fill="#434951" d="M553.51,518.5c-6.09-6.26-13.52-11.15-22.1-14.53-8.53-3.36-18.06-5.06-28.34-5.06s-19.83,1.75-28.37,5.2c-8.58,3.47-16,8.39-22.07,14.64-6.06,6.23-10.85,13.77-14.22,22.42-3.35,8.61-5.06,18.18-5.06,28.45s1.7,19.6,5.06,28.21c3.37,8.64,8.24,16.23,14.48,22.56,6.24,6.33,13.87,11.33,22.68,14.87,8.78,3.53,18.78,5.32,29.72,5.32,14.43,0,27.11-3.34,37.68-9.92,5.92-3.69,11.23-8.46,15.79-14.2,3.05-3.84,3.63-8.97,1.51-13.36-2.1-4.34-6.4-7.04-11.24-7.04h-1.27c-3.79,0-7.39,1.77-9.89,4.84-1.22,1.51-2.58,2.9-4.05,4.14-2.48,2.11-5.23,3.9-8.17,5.33-2.96,1.44-6.12,2.56-9.4,3.32-3.26.76-6.7,1.15-10.21,1.15-6.17,0-11.93-.93-17.13-2.77-5.21-1.84-9.81-4.35-13.69-7.47-3.82-3.07-6.93-6.82-9.25-11.16-1.74-3.25-3.01-6.76-3.8-10.46h101.63c4.57,0,8.4-3.56,8.73-8.17.17-2.44.26-4.46.26-6.18,0-9.95-1.7-19.32-5.06-27.84-3.37-8.55-8.15-16.04-14.21-22.28ZM545.85,560.45h-84.1c.36-3.27,1.2-6.66,2.54-10.1,1.81-4.67,4.48-8.91,7.94-12.59,3.46-3.69,7.89-6.8,13.14-9.24,5.2-2.41,11.41-3.63,18.44-3.63,6.42,0,12.25,1.07,17.32,3.19,5.09,2.13,9.5,5,13.12,8.55,3.6,3.53,6.41,7.71,8.36,12.44,1.51,3.67,2.59,7.49,3.23,11.39Z"/>
  <path fill="#434951" d="M656.56,506.99h-7.66c-8.5,0-16.31,1.46-23.21,4.35-4.04,1.69-7.58,3.99-10.59,6.88-1.62-6.44-7.46-11.23-14.4-11.23-8.19,0-14.85,6.66-14.85,14.85v103.82c0,8.32,6.77,15.09,15.09,15.09s15.09-6.77,15.09-15.09v-57.1c0-6.19.73-11.52,2.17-15.83,1.41-4.23,3.29-7.69,5.6-10.29,2.24-2.52,4.86-4.37,7.78-5.49,3.05-1.16,6.54-1.75,10.38-1.75h14.59c7.78,0,14.1-6.33,14.1-14.11s-6.33-14.1-14.1-14.1Z"/>
  <path fill="#f47524" d="M699.57,458.79c-5.2,0-9.59,1.7-13.05,5.06-3.49,3.38-5.26,7.76-5.26,13s1.77,9.62,5.26,13c3.46,3.36,7.85,5.06,13.05,5.06,5.55,0,10.07-1.72,13.46-5.1,3.38-3.38,5.1-7.74,5.1-12.96s-1.71-9.58-5.1-12.96c-3.38-3.38-7.91-5.09-13.46-5.09Z"/>
  <path fill="#434951" d="M699.82,506.99c-8.32,0-15.09,6.77-15.09,15.09v103.57c0,8.32,6.77,15.09,15.09,15.09s15.09-6.77,15.09-15.09v-103.57c0-8.32-6.77-15.09-15.09-15.09Z"/>
  <path fill="#434951" d="M868.36,551.18c-3-9.43-7.41-17.79-13.09-24.86-5.73-7.12-12.86-12.84-21.17-16.99-8.36-4.18-17.95-6.3-28.5-6.3s-20.47,2.47-29.36,7.35c-5.68,3.12-10.66,6.99-14.87,11.56-.07-8.26-6.82-14.96-15.09-14.96s-15.09,6.77-15.09,15.09v103.57c0,8.32,6.77,15.09,15.09,15.09s15.09-6.77,15.09-15.09v-39.3c0-8.99,1.11-16.99,3.29-23.78,2.16-6.71,5.15-12.39,8.88-16.89,3.68-4.42,8.16-7.85,13.33-10.17,5.21-2.34,11.01-3.53,17.24-3.53,5.24,0,10.25,1.06,14.88,3.15,4.62,2.09,8.74,5.23,12.26,9.35,3.57,4.18,6.42,9.45,8.49,15.65,2.1,6.29,3.16,13.69,3.16,22.01v43.63c0,8.25,6.72,14.97,14.97,14.97s14.97-6.71,14.97-14.97v-44.86c0-10.35-1.51-20.35-4.49-29.73Z"/>
</svg>