<?xml version="1.0" encoding="UTF-8"?>
<svg id="Layer_1" data-name="Layer 1" xmlns="http://www.w3.org/2000/svg" viewBox="0 0 1080 1080">
  <defs>
    <style>
      .cls-1 {
        fill: #f47524;
      }

      .cls-2 {
        fill: #434951;
      }
    </style>
  </defs>
  <path class="cls-1" d="M374.61,480.92c32.63,38.79,90.52,43.8,129.32,11.17h0c38.79-32.63,43.8-90.52,11.17-129.32L266.1,66.69c-32.63-38.79-90.52-43.8-129.32-11.17h0c-38.79,32.63-43.8,90.52-11.17,129.32l249,296.08Z"/>
  <path class="cls-2" d="M654.42,595.69c-16.16-19.22-39.85-30.23-65-30.23-19.92,0-39.31,7.06-54.58,19.89-2.1,1.76-4.15,3.66-6.13,5.68,26.19,36.49,28.11,86.22,4.74,124.58l240.1,285.41c16.12,19.18,39.81,30.18,64.96,30.18,19.92,0,39.29-7.07,54.55-19.91,17.36-14.57,27.99-35.03,29.94-57.61,1.96-22.57-5-44.56-19.6-61.91l-248.97-296.09Z"/>
  <path class="cls-2" d="M942.96,49.73c-14.99-11.58-32.9-17.69-51.79-17.69-26.53,0-51.04,12.03-67.23,33.01l-236.42,306.22c-13.85,17.94-19.89,40.2-17,62.68,2.89,22.48,14.36,42.49,32.3,56.34,14.99,11.57,32.9,17.69,51.79,17.69,26.53,0,51.03-12.03,67.22-33.01l236.42-306.22c28.59-37.03,21.73-90.43-15.31-119.02Z"/>
  <path class="cls-1" d="M489.16,589.73c-14.99-11.58-32.9-17.69-51.78-17.69-26.52,0-51.02,12.03-67.22,33.01l-236.46,306.22c-11.59,15.06-17.71,32.96-17.71,51.78,0,26.5,12.04,51,33.03,67.22,14.99,11.58,32.9,17.69,51.78,17.69,26.52,0,51.02-12.03,67.22-33.01l236.44-306.14c1.89-2.47,3.66-5.03,5.26-7.59,17.87-29.14,16.21-67.2-4.16-94.72-4.61-6.32-10.13-11.96-16.4-16.77Z"/>
</svg>