<svg xmlns="http://www.w3.org/2000/svg" viewBox="0 0 400 340">
  <defs>
    <linearGradient id="dg1" x1="0%" y1="0%" x2="100%" y2="100%">
      <stop offset="0%" style="stop-color:#F47524;stop-opacity:0.15"/>
      <stop offset="100%" style="stop-color:#F47524;stop-opacity:0.04"/>
    </linearGradient>
    <linearGradient id="dg2" x1="0%" y1="0%" x2="0%" y2="100%">
      <stop offset="0%" style="stop-color:#F47524;stop-opacity:0.9"/>
      <stop offset="100%" style="stop-color:#F47524;stop-opacity:0.5"/>
    </linearGradient>
  </defs>

  <circle cx="200" cy="155" r="130" fill="url(#dg1)"/>

  <rect x="160" y="95" width="130" height="100" rx="10" fill="url(#dg2)"/>
  <rect x="160" y="95" width="130" height="25" rx="10" fill="#434951"/>
  <rect x="160" y="110" width="130" height="10" fill="#434951"/>

  <polygon points="210,140 225,130 240,140 225,150" fill="white" opacity="0.9"/>
  <line x1="237" y1="128" x2="245" y2="122" stroke="white" stroke-width="2.5" stroke-linecap="round" opacity="0.7"/>

  <rect x="140" y="125" width="25" height="30" rx="4" fill="#434951"/>
  <rect x="140" y="145" width="25" height="25" rx="0 0 4 4" fill="#434951" opacity="0.85"/>
  <rect x="148" y="130" width="9" height="9" rx="2" fill="#F47524" opacity="0.6"/>

  <circle cx="185" cy="230" r="10" fill="none" stroke="#434951" stroke-width="2.5"/>
  <circle cx="240" cy="230" r="10" fill="none" stroke="#434951" stroke-width="2.5"/>
  <circle cx="185" cy="230" r="4" fill="#434951" opacity="0.3"/>
  <circle cx="240" cy="230" r="4" fill="#434951" opacity="0.3"/>

  <line x1="290" y1="150" x2="320" y2="150" stroke="#F47524" stroke-width="2" opacity="0.25" stroke-linecap="round"/>
  <line x1="295" y1="160" x2="315" y2="160" stroke="#F47524" stroke-width="2" opacity="0.15" stroke-linecap="round"/>
  <line x1="292" y1="170" x2="312" y2="170" stroke="#F47524" stroke-width="2" opacity="0.1" stroke-linecap="round"/>

  <circle cx="105" cy="130" r="7" fill="#F47524" opacity="0.1"/>
  <circle cx="95" cy="180" r="5" fill="#F47524" opacity="0.08"/>
  <circle cx="115" cy="200" r="9" fill="#F47524" opacity="0.06"/>
  <circle cx="310" cy="110" r="6" fill="#F47524" opacity="0.12"/>
  <circle cx="100" cy="100" r="4" fill="#F47524" opacity="0.15"/>

  <line x1="100" y1="265" x2="310" y2="265" stroke="#F47524" stroke-width="2" opacity="0.2" stroke-dasharray="4,4"/>
  <rect x="175" y="250" width="12" height="15" rx="3" fill="#434951" opacity="0.12"/>
  <rect x="233" y="250" width="12" height="15" rx="3" fill="#434951" opacity="0.12"/>
</svg>
