<svg xmlns="http://www.w3.org/2000/svg" viewBox="0 0 400 340">
  <defs>
    <linearGradient id="pg1" x1="0%" y1="0%" x2="100%" y2="100%">
      <stop offset="0%" style="stop-color:#F47524;stop-opacity:0.15"/>
      <stop offset="100%" style="stop-color:#F47524;stop-opacity:0.04"/>
    </linearGradient>
    <linearGradient id="pg2" x1="0%" y1="0%" x2="0%" y2="100%">
      <stop offset="0%" style="stop-color:#F47524;stop-opacity:0.9"/>
      <stop offset="100%" style="stop-color:#F47524;stop-opacity:0.5"/>
    </linearGradient>
    <linearGradient id="cardGrad" x1="0%" y1="0%" x2="100%" y2="100%">
      <stop offset="0%" style="stop-color:#434951"/>
      <stop offset="100%" style="stop-color:#434951;stop-opacity:0.7"/>
    </linearGradient>
  </defs>

  <circle cx="200" cy="155" r="130" fill="url(#pg1)"/>

  <path d="M200,70 L265,98 L265,162 Q265,210 200,242 Q135,210 135,162 L135,98 Z" fill="url(#pg2)" stroke="none"/>
  <path d="M200,70 L265,98 L265,162 Q265,210 200,242 Q135,210 135,162 L135,98 Z" fill="none" stroke="#434951" stroke-width="2.5" stroke-linecap="round" stroke-linejoin="round"/>
  <polyline points="165,168 188,190 235,145" fill="none" stroke="white" stroke-width="5" stroke-linecap="round" stroke-linejoin="round"/>

  <rect x="155" y="135" width="90" height="55" rx="8" fill="white" opacity="0.88"/>
  <rect x="165" y="145" width="14" height="10" rx="3" fill="#F47524" opacity="0.5"/>
  <line x1="165" y1="165" x2="205" y2="165" stroke="#434951" stroke-width="3" stroke-linecap="round" opacity="0.1"/>
  <line x1="165" y1="175" x2="195" y2="175" stroke="#434951" stroke-width="3" stroke-linecap="round" opacity="0.07"/>

  <circle cx="215" cy="150" r="12" fill="#F47524" opacity="0.15"/>
  <rect x="210" y="156" width="10" height="8" rx="2" fill="#F47524"/>
  <path d="M212,160 L212,156 Q212,152 215,150 Q218,148 218,152 L218,156" fill="none" stroke="#F47524" stroke-width="2" stroke-linecap="round"/>
  <circle cx="215" cy="163" r="2" fill="white"/>

  <circle cx="130" cy="120" r="6" fill="#F47524" opacity="0.12"/>
  <circle cx="275" cy="105" r="7" fill="#F47524" opacity="0.08"/>
  <circle cx="120" cy="195" r="5" fill="#F47524" opacity="0.1"/>
  <circle cx="280" cy="205" r="8" fill="#F47524" opacity="0.06"/>
  <circle cx="140" cy="155" r="4" fill="#F47524" opacity="0.15"/>
  <circle cx="270" cy="150" r="4" fill="#F47524" opacity="0.12"/>

  <line x1="100" y1="265" x2="310" y2="265" stroke="#F47524" stroke-width="2" opacity="0.2" stroke-dasharray="4,4"/>
</svg>
